<?xml version="1.0" encoding="UTF-8" standalone="no"?>
<svg
   xmlns:dc="http://purl.org/dc/elements/1.1/"
   xmlns:cc="http://creativecommons.org/ns#"
   xmlns:rdf="http://www.w3.org/1999/02/22-rdf-syntax-ns#"
   xmlns:svg="http://www.w3.org/2000/svg"
   xmlns="http://www.w3.org/2000/svg"
   viewBox="0 0 1056 1056"
   height="1056"
   width="1056"
   xml:space="preserve"
   id="svg2"
   version="1.1"><metadata
     id="metadata8"><rdf:RDF><cc:Work
         rdf:about=""><dc:format>image/svg+xml</dc:format><dc:type
           rdf:resource="http://purl.org/dc/dcmitype/StillImage" /></cc:Work></rdf:RDF></metadata><defs
     id="defs6" /><g
     transform="matrix(1.3333333,0,0,-1.3333333,0,1056)"
     id="g10"><g
       transform="scale(0.1)"
       id="g12">
		<!-- D sliver -->
		<path
			id="path14"
			style="fill:#ffffff;fill-opacity:1;fill-rule:nonzero;stroke:none"
			d="m 3939.7,2661.41 c 126.04,0 220.4,6.89 283.01,20.64 62.6,13.81 115.22,38 157.81,72.66 8.76,7.15 16.66,15.23 24.38,23.49 -158.92,-42.82 -317.77,-81.77 -475.64,-116.79 h 10.44" />
		<!-- C corner (center-ish)-->
		<path
			id="path16"
			style="fill:#ffffff;fill-opacity:1;fill-rule:nonzero;stroke:none"
			d="m 5396.09,3332.59 c 106.58,45.8 208.35,93.08 304.91,141.54 h -304.91 v -141.54" />
		<!-- C lower -->
		<path
			id="path18"
			style="fill:#ffffff;fill-opacity:1;fill-rule:nonzero;stroke:none"
			d="m 5377.94,3007.12 c -12.1,-30.11 -37.78,-45.16 -77.01,-45.16 -40.93,0 -67.18,15.05 -78.9,45.06 -2.54,6.57 -4.74,15.05 -6.78,24.8 -149.2,-53.73 -304.34,-105.36 -464.65,-154.31 36.92,-71.83 94.85,-130.23 174.66,-174.79 100.14,-55.89 227.45,-83.87 381.94,-83.87 148.59,0 273.59,33 375.07,99.05 101.43,66.07 166.94,142.98 196.58,230.78 26.08,77.31 40.65,202.12 43.78,374.18 -164.52,-77.61 -341.91,-153.08 -530.06,-225.31 -2.98,-42.96 -7.79,-73.39 -14.63,-90.43" />
		<!-- C upper-->
		<path
			id="path20"
			style="fill:#ffffff;fill-opacity:1;fill-rule:nonzero;stroke:none"
			d="m 5222.03,4341.95 c 11.72,30.89 39.23,46.35 82.67,46.35 38.38,0 63.21,-12.71 74.49,-38.11 11.29,-25.42 16.9,-89.36 16.9,-191.83 V 3806 h 527.21 v 192.59 c 0,189.24 -15.85,328.69 -47.57,418.28 -31.77,89.62 -98.1,164.47 -199.13,224.5 -101.01,60.03 -229.14,90.05 -384.44,90.05 -114.37,0 -215.6,-19.42 -303.68,-58.24 -88.08,-38.81 -156.96,-92.03 -206.59,-159.65 -49.7,-67.64 -79.54,-137.97 -89.57,-211.01 -10.03,-73.08 -15.01,-182.65 -15.01,-328.74 v -592.31 c 0,-121.08 6.13,-223.39 18.19,-307.41 177.46,56.11 347.72,116.24 508.98,179.76 v 887.76 c 0,102.7 5.83,169.48 17.55,200.37" />
		<!-- Satellite main -->
		<path
			id="path22"
			style="fill:#ffffff;fill-opacity:1;fill-rule:nonzero;stroke:none"
			d="m 6423.1,5095.74 c 1.6,-2.09 2.16,-2.98 2.88,-3.69 14.7,-14.73 29.47,-29.34 43.98,-44.25 1.45,-1.49 2.56,-5.62 1.61,-6.81 -5.38,-6.78 -11.37,-13.04 -18.26,-20.67 -10.06,10.42 -18.45,19.36 -27.13,28.08 -30.11,30.19 -60.43,60.15 -90.39,90.52 -13.91,14.1 -30.08,14.58 -44.17,0.38 -4.61,-4.69 -9.37,-9.23 -14.03,-13.88 -23.23,-23.27 -46.58,-46.44 -69.65,-69.86 -12.12,-12.32 -12.6,-28.87 -1.21,-40.32 30.11,-30.19 60.29,-60.25 90.65,-90.18 9.69,-9.54 19.98,-18.5 29.94,-27.75 -8.84,-8.74 -15.68,-15.51 -23.27,-23 -16.35,16.96 -32.68,33.93 -50.17,52.05 -89.37,-89.58 -177.76,-178.17 -266.28,-266.89 -25.87,-25.95 -52.03,-52.15 -77.91,-78.1 0,-0.55 0,-1.07 0,-1.57 11,-10.45 22.22,-20.72 32.92,-31.41 31.03,-30.76 61.87,-61.71 92.69,-92.65 2.14,-2.17 3.79,-4.82 5.69,-7.24 0.51,0 1.02,0 1.56,0 31.23,31.19 62.61,62.44 93.88,93.66 83.44,83.26 167.11,166.71 251.74,251.17 -18.22,17.49 -35.29,33.94 -51.16,49.17 6.95,7.8 13.35,14.96 20,22.36 1.83,-1.72 3.15,-2.91 4.46,-4.16 10.88,-10.7 21.48,-21.71 32.74,-32 8.93,-8.22 18.83,-9.28 28.99,-2.8 6.78,4.3 12.6,10.24 18.56,15.75 6.69,6.13 13.02,12.64 18.51,17.98 17.2,-16.9 33.53,-32.85 52.16,-51.12 -8,-6.22 -15.98,-12.5 -24.46,-19.08 15.66,-16.3 32.29,-22.67 51.83,-17.52 21.01,5.55 33.99,19.72 37.68,41.27 3.06,18.21 -3.42,33.29 -19.25,47.66 -6.83,-8.47 -13.21,-16.41 -18.96,-23.57 -17.92,17.66 -34.15,33.7 -51.09,50.43 8.74,8.83 17.48,17.81 26.35,26.68 16.12,16.17 15.75,31.17 -0.98,46.81 -10.34,9.62 -20.42,19.53 -30.18,28.86 7.89,8.36 14.5,15.35 21.75,23.09 16.67,-17.3 33,-34.28 50.41,-52.37 68.37,68.5 135.84,136.13 203.6,204.01 46.82,46.93 93.98,94.19 140.73,141.05 0,0.52 0,1.06 0,1.57 -10.97,10.46 -22.16,20.74 -32.9,31.41 -31.16,30.96 -62.17,62.06 -93.19,93.2 -1.97,1.96 -3.46,4.45 -5.16,6.69 -0.53,0 -1.07,0 -1.62,0 -39.06,-39.12 -78.12,-78.26 -117.21,-117.35 -27.35,-27.35 -54.69,-54.67 -82.06,-82 -35.23,-35.24 -70.4,-70.49 -105.69,-105.69 -12.81,-12.79 -25.93,-25.27 -38.93,-37.92" />
		<!-- Big "radio" wave -->
		<path
			id="path24"
			style="fill:#ffffff;fill-opacity:1;fill-rule:nonzero;stroke:none"
			d="m 6689.96,4988.36 c -1.9,-1.32 -3.06,-1.96 -4,-2.78 -3.8,-3.22 -7.55,-6.48 -11.72,-10.11 43.08,-42.85 65.58,-93.23 66.26,-152.28 0.68,-59.42 -20.87,-110.33 -62.13,-153.2 -66.7,-69.29 -205.58,-96.78 -304.5,2.12 -4.59,-4.1 -9.21,-8.19 -14.22,-12.62 56.81,-59.33 145.74,-89.68 234.39,-61.92 89.38,28 145.11,89.69 162.49,182.05 15.1,80.45 -10,149.86 -66.57,208.74" />
		<!-- Small "radio" wave -->
		<path
			id="path26"
			style="fill:#ffffff;fill-opacity:1;fill-rule:nonzero;stroke:none"
			d="m 6561.32,4691.39 c 52.68,13.67 86.05,48.73 97.2,102.17 10.03,47.97 -3.7,89.77 -38.75,124.89 -4.83,-5 -9.13,-9.43 -13.9,-14.36 22.16,-21.59 34.82,-48.09 35.77,-79.53 0.96,-31.44 -9.35,-59 -30.89,-82 -18.3,-19.49 -40.86,-31.28 -67.41,-34.66 -38.91,-4.98 -71.96,7.37 -98.53,34.03 -5.28,-4.28 -9.95,-8.08 -15.5,-12.6 38,-37.72 82.11,-50.88 132.01,-37.94" />
		<!-- main -->
		<path
			id="path28"
			style="fill:#ffffff;fill-opacity:1;fill-rule:nonzero;stroke:none"
			d="m 3801.94,4341.95 c 57.64,0 96.84,-6.06 117.72,-18.16 20.88,-12.11 34.24,-31.09 40.07,-56.97 5.86,-25.89 8.78,-84.75 8.78,-176.58 v -787.66 c 0,-135.26 -8.78,-218.12 -26.32,-248.61 -17.51,-30.49 -64.27,-45.66 -140.25,-45.66 M 1960.32,4052.29 c -114.2,-55.3 -222.99,-111.9 -324.99,-169.73 -452.28,-256.46 -748.428,-522.53 -833.869,-749.18 -41.293,-109.55 -33.633,-209.33 22.734,-296.49 148.285,-229.28 610.375,-355.58 1301.165,-355.58 703.7,0 1556.6,131.63 2401.56,370.69 679.19,192.15 1287,434.78 1757.72,701.67 452.26,256.45 748.4,522.53 833.87,749.19 41.33,109.58 33.68,209.35 -22.7,296.52 -37.27,57.61 -94.38,108.69 -169.93,152.94 -47.57,-119.35 -169.26,-214.33 -324.88,-255.49 5.35,-7.02 11.18,-13.9 15.85,-21.16 53.72,-83.03 61.25,-177.35 22.42,-280.31 C 6483.71,3782.75 5601.73,3285.6 4444.54,2958.23 3733.76,2757.14 3015.87,2646.36 2423.14,2646.36 c -591.22,0 -988.97,111.59 -1120,314.18 -53.7,83.06 -61.24,177.39 -22.41,280.38 77.55,205.66 335.66,432.35 718.35,648.55 5.16,-12.4 10.56,-24.29 16.22,-35.72 -0.02,0 -0.02,0 -0.03,0 24.43,-49.29 53.17,-89.63 86.56,-120.39 42.58,-39.27 129.39,-102.28 260.47,-189.1 131.05,-85.99 213.31,-147.38 246.71,-184.1 32.54,-36.72 48.81,-114.78 48.81,-234.16 0,-54.26 -8.55,-95.19 -25.66,-122.7 -17.12,-27.59 -43.2,-41.34 -78.27,-41.34 -35.05,0 -59.48,10.84 -73.24,32.52 -13.77,21.76 -20.67,70.57 -20.67,146.56 v 246.7 h -489.63 v -132.73 c 0,-151.98 15.43,-269.27 46.32,-351.92 30.88,-82.67 96.22,-150.69 195.99,-204.13 6.31,-3.38 12.94,-6.31 19.43,-9.5 61.18,-2.72 124.69,-4.27 191.05,-4.27 168.58,0 347.64,9.29 533.57,26.88 72.38,41.76 123.04,91.18 151.32,148.48 33.79,68.35 50.69,174.79 50.72,319.11 0,0.08 0.01,0.13 0.01,0.2 0,198.67 -30.47,342.71 -91.42,432.01 -60.92,89.34 -208.75,203.68 -443.42,342.94 -29.51,17.46 -54.69,33.94 -75.83,49.56 -37.5,27.67 -61.99,52.51 -73.17,74.38 -18.29,34.27 -27.44,85.25 -27.44,152.88 0,52.65 8.14,91.89 24.42,117.82 16.27,25.89 40.26,38.85 72,38.85 29.22,0 50.1,-9.62 62.61,-28.81 12.52,-19.21 18.79,-63.87 18.79,-133.99 v -150.27 h 96.99 v -0.01 h 392.62 v 0.01 h 0.02 v 80.15 c 0,63.77 -2.55,119.88 -7.45,168.94 -1.37,13.59 -2.84,26.84 -4.56,39.28 56.45,18.72 113.64,37.13 171.77,55.06 v -40.53 -41.32 -104.19 l 0.06,0.01 V 2749.35 c 373.59,52.24 767.39,135.37 1159.22,246.26 17.9,5.04 35.5,10.25 53.22,15.41 5.62,64.63 8.51,148.44 8.51,252.73 v 710.03 c 0,192.03 -5.83,320.78 -17.53,386.34 -11.59,64.92 -40.47,123.84 -86.44,176.89 l 0.97,0.27 c -23.74,27.13 -53.05,50.39 -87.84,69.8 -11.42,6.46 -23.68,12.35 -36.32,17.97 -0.09,-0.03 -0.24,-0.05 -0.3,-0.06 -22.29,9.75 -46.37,18.26 -72.36,25.42 462.9,90.85 909.34,139.5 1301.04,139.5 157.69,0 301.17,-8.19 429.95,-23.69 -10.83,31.34 -17.18,64.05 -17.18,97.93 0,30.76 5.24,60.55 14.22,89.26 -42.17,1.02 -85.24,1.57 -129.28,1.57 -594.95,0 -1296.57,-94.42 -2009.8,-267.96 -36.44,0.58 -74.23,1 -114.89,1 h -40.75 c 1.06,0.27 2.13,0.55 3.2,0.83 h -357.64 v -0.83 h -0.06 v -97.63 -40.38 c -68.44,-20.21 -135.89,-41 -202.68,-62.19 -1.37,3.29 -2.6,6.98 -4.04,10.06 -3.99,8.53 -8.49,16.87 -13.52,25.01 -34.54,56.13 -93.89,103.52 -178.08,142.15 -96.42,44.23 -213.08,66.38 -350,66.38 -125.22,0 -232.1,-20.24 -320.57,-60.73 -88.51,-40.5 -152.61,-96.66 -192.24,-168.43 0,-0.01 -0.02,-0.01 -0.02,-0.03 v 0 c -39.65,-71.8 -59.47,-185.33 -59.47,-340.6 0,-23.74 0.95,-46.15 2.3,-67.99 0.02,0 0.02,0 0.02,0 0.9,-14.35 2.45,-27.81 3.93,-41.35" />
</g></g></svg>