<svg id="Layer_1" data-name="Layer 1" xmlns="http://www.w3.org/2000/svg" viewBox="0 0 291.24 300.5"><defs><style>.cls-1{stroke:#000;stroke-miterlimit:10;stroke-width:0.5px;}</style></defs><path class="cls-1" d="M522.54,381.69l1.27,9.26H589c-.49,7.12-.74,13.69-1.42,20.22-2.5,23.67-7.84,46.57-18.64,68-8.51,16.91-20.65,30.15-37.83,38.43-13.79,6.65-27.69,13.1-41.44,19.83-2.9,1.42-5.43,3.62-8.06,5.55-7.18,5.3-14.38,10.56-21.41,16.05a6.83,6.83,0,0,0-2.54,4.53c-.19,14-.13,28-.09,42,0,13.13,6.41,22,18.36,27.1.92.39,1.83.79,2.74,1.21.08,0,.07.28.16.67H407.08c3-1.38,4.88-2.21,6.74-3.16,9.68-5,15.28-12.8,15.47-23.83.26-14.82.24-29.65.08-44.47,0-1.44-1.64-3.22-3-4.22-6.22-4.67-12.61-9.11-18.94-13.65-4.11-2.95-7.92-6.48-12.38-8.74-11.57-5.87-23.37-11.31-35.18-16.7-20.51-9.36-34.87-24.64-44-45-11.43-25.43-16.49-52.27-17.53-80a35.31,35.31,0,0,1,.29-3.62h64.64l1.29-9.42ZM319,410.21a20.65,20.65,0,0,0,0,3.81c2.62,12.36,4.83,24.83,8.06,37,6.92,26.11,23.78,44.13,47.47,56.19,2.54,1.29,5.42,1.93,9.54,3.35a224.48,224.48,0,0,1-20.37-100.37ZM503.05,510.44c3.68-1.15,6.29-1.53,8.49-2.71,19-10.21,35.27-23,43.74-43.89a193,193,0,0,0,13.2-53.78H523.29C524.34,444.7,517.79,477.67,503.05,510.44Z" transform="translate(-298.06 -381.44)"/><path class="cls-1" d="M392.17,681.69V644.54h103v37.15Z" transform="translate(-298.06 -381.44)"/></svg>